<mxfile host="app.diagrams.net" modified="2022-06-29T01:16:49.976Z" agent="5.0 (Windows NT 10.0; Win64; x64) AppleWebKit/537.36 (KHTML, like Gecko) Chrome/103.0.5060.53 Safari/537.36 Edg/103.0.1264.37" etag="HtNPV1-VSY_IMijv7o5e" version="20.0.3" type="github">
  <diagram id="iC6M-rrgXTsZYorOLaK3" name="Page-1">
    <mxGraphModel dx="1557" dy="641" grid="1" gridSize="10" guides="1" tooltips="1" connect="1" arrows="1" fold="1" page="1" pageScale="1" pageWidth="1100" pageHeight="850" math="0" shadow="0">
      <root>
        <mxCell id="0" />
        <mxCell id="1" parent="0" />
      </root>
    </mxGraphModel>
  </diagram>
</mxfile>
